<?xml version="1.0" encoding="UTF-8"?>
<svg version="1.1" xmlns="http://www.w3.org/2000/svg" width="4500" height="4500">
<path d="M0 0 C26.33422582 20.99741639 39.13376473 52.19091181 43 85 C44.74601453 101.91237604 44.08209876 118.93097315 43.1875 135.875 C43.14298706 136.72438141 43.09847412 137.57376282 43.0526123 138.44888306 C39.26328995 209.41082335 24.29479309 287.29531129 -15.62109375 347.34765625 C-17.17495424 349.81736182 -17.17495424 349.81736182 -16.953125 352.1328125 C-12.1673752 361.50817481 0.99745822 367.01738369 10.4296875 370.1328125 C34.80409576 376.05307359 61.62407484 370.57113919 83 358 C90.98756634 353.22934081 90.98756634 353.22934081 96 346 C95.40104994 343.74285305 95.40104994 343.74285305 94.33984375 341.30859375 C93.96142334 340.374104 93.58300293 339.43961426 93.19311523 338.47680664 C92.57158569 336.97234985 92.57158569 336.97234985 91.9375 335.4375 C91.09080186 333.32148978 90.24707184 331.2042896 89.40625 329.0859375 C88.99117187 328.04147461 88.57609375 326.99701172 88.1484375 325.92089844 C69.74981718 279.12644828 64.00483922 226.83801945 61 177 C60.95796448 176.36172272 60.91592896 175.72344543 60.87261963 175.06582642 C59.85438877 159.3953679 59.7795333 143.71617305 59.75976562 128.01928711 C59.75537115 125.04976179 59.74140754 122.0805254 59.71875 119.11108398 C59.56511122 98.52769167 59.68423132 78.08632899 65.6875 58.1875 C65.94023682 57.32914551 66.19297363 56.47079102 66.45336914 55.58642578 C69.03720124 47.22217219 72.65619644 39.58091948 77 32 C77.83144531 30.52853516 77.83144531 30.52853516 78.6796875 29.02734375 C90.86663259 8.76436088 108.46888932 -5.50198592 131.2109375 -12.08984375 C153.40708781 -17.42149635 174.84492971 -12.5858758 194.125 -0.9375 C198.87620129 2.26439652 202.94920883 5.96221298 207 10 C207.83402344 10.81082031 208.66804688 11.62164063 209.52734375 12.45703125 C216.67527633 19.80321158 221.39547228 27.93970991 226 37 C226.49371094 37.9590625 226.98742188 38.918125 227.49609375 39.90625 C260.58265057 108.34697814 236.41119823 214.50308629 212.96435547 281.98046875 C205.00302747 304.28929992 195.55283579 329.28300467 181.55078125 348.4765625 C179.80343886 350.81319463 179.80343886 350.81319463 180.03515625 353.16015625 C184.20418491 361.11000443 194.27842077 365.44979364 202.37890625 368.109375 C213.73947014 370.903559 223.72270898 368.67904175 234.515625 365.09375 C238 364 238 364 241 364 C241 385.12 241 406.24 241 428 C219.796063 433.30098425 197.09774387 434.84378716 176 428 C175.02184326 427.68651611 175.02184326 427.68651611 174.02392578 427.36669922 C158.92294438 422.33806111 146.8317012 413.37982578 135 403 C130.98964043 404.38214178 128.26319147 406.25216535 125 408.9375 C98.52370062 429.12852781 65.07410497 437.48489938 32.25 437.3125 C31.50709717 437.31034485 30.76419434 437.3081897 29.9987793 437.30596924 C-4.39126601 437.14629458 -36.91898118 426.33334618 -62 402 C-65.84504859 403.34985748 -68.57726823 405.08883543 -71.75 407.625 C-84.07820169 416.71849282 -98.18301654 421.61522611 -113 425 C-114.03769531 425.24621094 -115.07539062 425.49242188 -116.14453125 425.74609375 C-139.95583471 430.36810045 -163.55730661 426.85436588 -185 416 C-185.65709961 415.66871094 -186.31419922 415.33742188 -186.99121094 414.99609375 C-195.93269136 410.40534831 -203.98436161 405.08532065 -211.7734375 398.72192383 C-214.98443371 395.85581055 -214.98443371 395.85581055 -218.99511719 395.21582031 C-221.09457915 396.03699321 -222.61201991 396.97591109 -224.40625 398.3359375 C-225.05698486 398.81772461 -225.70771973 399.29951172 -226.37817383 399.79589844 C-227.42847778 400.57755371 -227.42847778 400.57755371 -228.5 401.375 C-266.73733615 428.97450783 -316.68344332 442.18345229 -363.68359375 435.30859375 C-367.91434979 434.51804 -371.91542615 433.35591008 -376 432 C-377.0194873 431.67854004 -377.0194873 431.67854004 -378.05957031 431.35058594 C-403.40845756 423.26952536 -422.51198389 406.22515809 -434.69140625 382.73828125 C-438.23847586 375.36855518 -440.91841892 367.90600507 -443 360 C-443.226875 359.16726563 -443.45375 358.33453125 -443.6875 357.4765625 C-449.73905369 330.8329164 -442.13802757 301.73857017 -428 279 C-406.44172428 246.52216853 -369.2047151 228.60113217 -332 221 C-298.11805884 214.3935827 -261.08658372 220.39024183 -232.125 239.5078125 C-229.03450921 241.6058617 -226.00318711 243.77846433 -223 246 C-223.67828939 229.07667978 -229.45698895 213.60375282 -242 202 C-261.36708232 186.93008233 -286.76143486 182.62384618 -310.68408203 185.30029297 C-341.78933158 189.93978012 -377.26179232 205.15531052 -399.16015625 228.28125 C-401 230 -401 230 -404 230 C-405.47265625 228.63671875 -405.47265625 228.63671875 -407.0625 226.6875 C-409.96807919 223.21677644 -412.94169278 219.83760468 -416 216.5 C-419.45328153 212.71337002 -422.86099051 208.8952368 -426.22265625 205.02734375 C-428.29359487 202.66510827 -430.39512848 200.33204147 -432.5 198 C-434.00014143 196.33346063 -435.50014641 194.66679842 -437 193 C-437.66773438 192.26136719 -438.33546875 191.52273437 -439.0234375 190.76171875 C-439.63445312 190.07722656 -440.24546875 189.39273438 -440.875 188.6875 C-441.40867187 188.09324219 -441.94234375 187.49898437 -442.4921875 186.88671875 C-444.23228778 184.70933939 -445.61226978 182.4139858 -447 180 C-413.05774324 146.88013272 -363.35535697 122.61564872 -316 118 C-314.91976563 117.89042969 -313.83953125 117.78085938 -312.7265625 117.66796875 C-273.2593708 114.15248255 -231.17564309 123.71956419 -200 149 C-198.97648437 149.82886719 -197.95296875 150.65773438 -196.8984375 151.51171875 C-171.09004435 173.81897329 -157.77140326 207.27166739 -155.14501953 240.76367188 C-153.42291133 267.32008787 -157.39632773 294.7352107 -167.22045898 319.50488281 C-169.34077269 326.29148038 -167.19759346 332.08557005 -164.3125 338.3125 C-160.76243272 344.85872336 -157.59177003 348.24455589 -150.5 350.875 C-137.99964528 354.17839704 -123.16868867 350.68800823 -112.03515625 344.57421875 C-107.64476996 341.46520633 -107.64476996 341.46520633 -105 337 C-105.6147199 333.02378269 -107.00299393 329.42577924 -108.49645996 325.69998169 C-109.7871903 322.46693533 -110.96467689 319.19247159 -112.15625 315.921875 C-112.52444855 314.92269798 -112.52444855 314.92269798 -112.90008545 313.90333557 C-128.41016349 271.42309871 -132.84605002 223.95836474 -135.85925293 179.08724976 C-135.95144764 177.72002133 -136.04678923 176.35300062 -136.14562988 174.98623657 C-137.26398995 159.26562016 -137.22135321 143.51007674 -137.24023438 127.75805664 C-137.24462941 124.62935798 -137.25859125 121.50093347 -137.28125 118.37231445 C-137.54896752 80.62901482 -133.65675733 43.68925357 -108 14 C-107.06220703 12.84564453 -107.06220703 12.84564453 -106.10546875 11.66796875 C-79.64208579 -19.9695176 -32.95579206 -22.72372208 0 0 Z M-59.5 57.375 C-70.8528404 70.93812791 -73.14065007 90.68397759 -73.16796875 107.80859375 C-73.17220352 108.63567841 -73.17643829 109.46276306 -73.18080139 110.31491089 C-73.19071495 113.02249196 -73.19070429 115.72990382 -73.1875 118.4375 C-73.18689575 119.37806244 -73.1862915 120.31862488 -73.18566895 121.28768921 C-73.09520592 173.75017653 -69.19887812 226.07734749 -56 277 C-53.73345807 274.19627517 -52.28677446 271.60783918 -51.01953125 268.23828125 C-50.6642334 267.29774902 -50.30893555 266.3572168 -49.94287109 265.38818359 C-49.56984863 264.37320801 -49.19682617 263.35823242 -48.8125 262.3125 C-48.41885254 261.24596191 -48.02520508 260.17942383 -47.61962891 259.08056641 C-30.25645545 211.51814703 -20.7920707 161.75484296 -20.75 111.0625 C-20.74932526 110.32053375 -20.74865051 109.5785675 -20.74795532 108.81411743 C-20.77556285 89.63927246 -22.13608292 69.68877256 -36 55 C-39.46992325 51.91562378 -41.59988208 50.13462672 -46.25 49.6875 C-52.18893483 50.18241124 -55.46621055 53.25275025 -59.5 57.375 Z M137.9375 58.125 C124.75210545 74.40879013 123.60157996 97.18204891 123.75 117.25 C123.75310181 118.00889526 123.75620361 118.76779053 123.75939941 119.54968262 C124.01343118 173.77569318 128.10442677 228.42618061 142 281 C142.66 281 143.32 281 144 281 C165.16925387 226.79074446 176.0553143 170.48710087 176.375 112.3125 C176.38294586 111.56102692 176.39089172 110.80955383 176.39907837 110.03530884 C176.55411657 91.11673933 174.56369943 70.37069299 161 56 C157.53007675 52.91562378 155.40011792 51.13462672 150.75 50.6875 C144.97219476 51.16898377 141.75903981 54.00124658 137.9375 58.125 Z M-336 291 C-337.13953125 291.39574219 -338.2790625 291.79148437 -339.453125 292.19921875 C-354.7759373 298.11225273 -367.78219481 307.82117213 -375.32421875 322.59375 C-379.0352536 331.44814895 -379.6722799 341.25880211 -376.4375 350.375 C-372.11636173 359.57630491 -365.44502453 365.18972394 -356.0234375 368.74609375 C-332.06054684 375.45385272 -301.25437205 366.41211823 -280.01367188 355.13867188 C-274.31939572 351.91872716 -269.10435891 348.07631854 -264 344 C-263.09636719 343.28070312 -262.19273437 342.56140625 -261.26171875 341.8203125 C-254.433694 336.02233192 -249.23537094 329.20698935 -244 322 C-253.1670186 305.82474875 -266.7793858 293.63695729 -284.5 287.65625 C-301.40527159 283.21861621 -319.70718738 285.31822004 -336 291 Z " fill="#005CFE" transform="translate(1665,1993)"/>
<path d="M0 0 C34.05706005 -0.6252376 68.51279193 7.62968334 95.4921875 29.12109375 C96.01022949 29.53230469 96.52827148 29.94351563 97.06201172 30.3671875 C124.54619148 52.36105768 139.98428627 82.73317854 144.0859375 117.65234375 C144.74884542 125.01901467 144.73637467 132.41772957 144.7421875 139.80859375 C144.74286224 140.58188019 144.74353699 141.35516663 144.74423218 142.15188599 C144.69820333 175.50215177 137.36496761 206.71407968 121.4921875 236.12109375 C120.95078125 237.14332031 120.409375 238.16554688 119.8515625 239.21875 C112.79323397 251.94772597 103.55789423 263.64353323 93.4921875 274.12109375 C93.0276416 274.61673828 92.5630957 275.11238281 92.08447266 275.62304688 C65.5087111 303.90866183 28.13464222 320.80279403 -10.75854492 322.32617188 C-15.23775717 322.44715539 -19.71478904 322.45569819 -24.1953125 322.43359375 C-24.98495392 322.4314386 -25.77459534 322.42928345 -26.58816528 322.42706299 C-38.7741496 322.37380405 -50.59607416 321.90813509 -62.5078125 319.12109375 C-63.75111328 318.83903076 -63.75111328 318.83903076 -65.01953125 318.55126953 C-84.10313945 314.06918891 -101.98863882 306.17976769 -117.5078125 294.12109375 C-118.96767578 292.991875 -118.96767578 292.991875 -120.45703125 291.83984375 C-148.18227867 269.75042425 -162.88531295 238.81102524 -167.02685547 203.921875 C-167.51140042 199.49430546 -167.68365666 195.11939639 -167.7109375 190.66796875 C-167.71799713 189.89399246 -167.72505676 189.12001617 -167.73233032 188.32258606 C-167.96230222 155.69578323 -167.96230222 155.69578323 -164.5078125 140.12109375 C-164.30913574 139.2094043 -164.11045898 138.29771484 -163.90576172 137.35839844 C-153.77216588 92.25440857 -127.2201529 50.05013854 -87.73095703 24.99365234 C-60.70918994 8.32834494 -31.56923401 1.08980652 0 0 Z M-56.17138672 85.52734375 C-81.89892716 116.20863421 -90.39550101 160.09067336 -87.23046875 199.1328125 C-84.8900059 218.68124983 -77.23051001 236.78659215 -62.5078125 250.12109375 C-46.15835536 262.54578409 -26.19124295 262.72525794 -6.57421875 260.71875 C12.32004964 257.10973244 28.34205028 244.77962597 39.10400391 229.23925781 C54.64233467 205.53004963 63.64992792 176.47716644 64.4921875 148.12109375 C64.53085938 147.05955078 64.53085938 147.05955078 64.5703125 145.9765625 C65.40993557 120.32607771 60.95486895 95.72966287 42.84765625 76.37890625 C39.35930066 73.03517568 35.70742193 70.46535571 31.4921875 68.12109375 C30.81929687 67.74339844 30.14640625 67.36570312 29.453125 66.9765625 C1.14525694 52.82262847 -35.83718634 62.54786541 -56.17138672 85.52734375 Z " fill="#FFFFFF" transform="translate(2365.5078125,2108.87890625)"/>
<path d="M0 0 C26.4 0 52.8 0 80 0 C78.87501354 11.24986456 78.87501354 11.24986456 77.81916809 16.60586548 C77.58245392 17.8186618 77.34573975 19.03145813 77.10185242 20.28100586 C76.84117935 21.59181366 76.58041901 22.9026041 76.31958008 24.21337891 C76.0430548 25.62096393 75.76694362 27.02863035 75.49121094 28.43637085 C74.89918699 31.45419306 74.30425007 34.47142055 73.70697975 37.48820877 C72.75551873 42.29400412 71.81057609 47.10106778 70.86637878 51.90829468 C69.36489397 59.54873254 67.85893342 67.18828043 66.35113686 74.82747495 C63.6703846 88.41020278 60.99753111 101.99448617 58.32581633 115.57899415 C57.39319727 120.32006273 56.45874895 125.06076578 55.52275556 129.80116928 C52.64644623 144.37128364 49.79036153 158.9452396 47.02881372 173.537606 C46.7684767 174.91175265 46.50708107 176.28569926 46.2445122 177.65942121 C42.80655743 195.6710748 39.38840003 215.57651143 50.203125 231.87890625 C56.6107779 239.44272261 66.31512543 243.19292712 76 244 C92.37961944 245.00383318 108.15461312 240.95612555 120.78930664 230.19140625 C129.76234539 222.06835402 136.38786782 212.83450486 141.6875 202 C142.20413208 200.96262695 142.20413208 200.96262695 142.73120117 199.90429688 C150.87087757 182.39463998 154.05591634 162.95324647 157.62799907 144.13209081 C158.31121253 140.54457862 159.00639467 136.95938365 159.7000885 133.37388611 C161.01378898 126.57430262 162.31697618 119.77274985 163.61626869 112.97040027 C165.06961785 105.36444093 166.53528677 97.76087328 168.00181079 90.15744519 C174.23077397 57.85742151 174.23077397 57.85742151 180.34033203 25.53466797 C180.51017514 24.62856372 180.68001825 23.72245947 180.85500813 22.78889751 C181.60502622 18.78587628 182.35128982 14.78225107 183.08860779 10.77687073 C183.33572924 9.45075339 183.58295855 8.12465615 183.83032227 6.79858398 C184.03520767 5.68692368 184.24009308 4.57526337 184.45118713 3.42991638 C185 1 185 1 186 0 C188.49492388 -0.09502416 190.96206014 -0.12557566 193.45727539 -0.11352539 C194.23770706 -0.11367142 195.01813873 -0.11381744 195.82221985 -0.1139679 C198.4140598 -0.11326858 201.00582878 -0.10547536 203.59765625 -0.09765625 C205.3898464 -0.09579213 207.18203706 -0.0943682 208.97422791 -0.09336853 C213.70070797 -0.08954284 218.42715752 -0.07971212 223.15362549 -0.06866455 C227.9728555 -0.05845153 232.79209042 -0.05387115 237.61132812 -0.04882812 C247.07423219 -0.03808989 256.53711356 -0.02101286 266 0 C265.26473597 8.04926774 263.76730138 15.90309929 262.22216797 23.83056641 C261.93347949 25.32571184 261.64510523 26.82091797 261.35701752 28.31617928 C260.57134786 32.38923918 259.78127996 36.46143498 258.99045134 40.5334959 C258.14539206 44.88895648 257.30445789 49.24521355 256.46304321 53.60137939 C255.02119822 61.0631291 253.57680727 68.52438217 252.13061523 75.98529053 C250.0621978 86.65629622 247.99766305 97.32805006 245.93419886 108.00001454 C242.72772341 124.58315405 239.51854351 141.16576865 236.30761719 157.74804688 C232.58213386 176.98802593 228.86212357 196.22905804 225.14566278 215.4707818 C224.45919855 219.0248709 223.77267141 222.57894785 223.08615112 226.13302612 C222.82005592 227.51059525 222.55396107 228.88816445 222.28786659 230.26573372 C222.15795177 230.93830153 222.02803694 231.61086934 221.8941853 232.30381799 C221.50852906 234.30037274 221.12288119 236.29692912 220.73723412 238.29348564 C218.35745167 250.61372679 215.97676313 262.93379262 213.59486008 275.25362396 C213.18342633 277.38177106 212.77205017 279.50992929 212.36073685 281.63809967 C211.80770405 284.49948587 211.2544687 287.36083282 210.70117188 290.22216797 C210.54146849 291.0486767 210.3817651 291.87518543 210.21722221 292.72673988 C210.07008844 293.48737928 209.92295467 294.24801868 209.7713623 295.03170776 C209.6455352 295.68254774 209.5197081 296.33338772 209.39006805 297.00395012 C208.93406233 299.33741517 208.46628649 301.66856755 208 304 C182.26 304 156.52 304 130 304 C131.98 292.615 131.98 292.615 134 281 C135.0058509 275.00081785 136.01092176 269.00190658 137 263 C136.443125 263.68964844 135.88625 264.37929687 135.3125 265.08984375 C132.89019524 268.07271565 130.44971758 271.03960461 128 274 C127.34257812 274.79792969 126.68515625 275.59585938 126.0078125 276.41796875 C120.91974401 282.38219841 115.21787102 287.24258532 109 292 C108.19691406 292.61875 107.39382812 293.2375 106.56640625 293.875 C83.23855953 311.03571483 55.11405512 315.81323877 26.76953125 311.61328125 C12.03360217 309.21582958 -1.51985534 303.74072881 -13 294 C-13.79277344 293.40316406 -14.58554688 292.80632813 -15.40234375 292.19140625 C-30.28839249 279.63340122 -37.98970808 258.90050163 -40 240 C-40.21975019 235.3745637 -40.2769566 230.7551205 -40.3125 226.125 C-40.34150391 224.93519531 -40.37050781 223.74539062 -40.40039062 222.51953125 C-40.45481154 214.45686317 -39.64263925 206.80169701 -38.33349609 198.86132812 C-38.1573688 197.77915323 -37.98124151 196.69697834 -37.79977703 195.58201027 C-35.64027712 182.52964459 -33.14509016 169.54018392 -30.64065194 156.55057859 C-29.94806355 152.95374313 -29.25998222 149.35604505 -28.57133484 145.75845337 C-27.26421437 138.93336928 -25.95327522 132.10902486 -24.64085311 125.28495848 C-23.18065849 117.6915997 -21.72461932 110.09744626 -20.26901841 102.50320578 C-18.43130388 92.91539781 -16.59293349 83.32771797 -14.75003052 73.74090576 C-14.20393162 70.89986694 -13.65785431 68.05882398 -13.11181641 65.21777344 C-12.979089 64.52719644 -12.84636158 63.83661944 -12.70961213 63.12511587 C-10.86104552 53.50507577 -9.02431731 43.88285006 -7.19677734 34.25878906 C-6.77179552 32.02445508 -6.34676372 29.79013061 -5.92167664 27.55581665 C-5.14804317 23.48948774 -4.3780594 19.42249162 -3.61018372 15.35507202 C-3.273077 13.58255045 -2.93582225 11.81005703 -2.59838867 10.03759766 C-2.44900282 9.24037922 -2.29961697 8.44316078 -2.14570427 7.62178421 C-1.11379083 2.22758165 -1.11379083 2.22758165 0 0 Z " fill="#FFFFFF" transform="translate(2559,2118)"/>
<path d="M0 0 C27.72 0 55.44 0 84 0 C85.24851816 4.36981358 86.28638119 8.11703508 86.94595337 12.51173401 C87.1054245 13.55925339 87.26489563 14.60677277 87.42919922 15.68603516 C87.59645508 16.8164624 87.76371094 17.94688965 87.93603516 19.11157227 C88.11854828 20.31998276 88.3010614 21.52839325 88.48910522 22.77342224 C88.98894926 26.0906 89.48455995 29.40835375 89.97791719 32.72649884 C90.39784999 35.54711239 90.82068604 38.36728782 91.24347341 41.18747467 C92.25202624 47.91544826 93.25571515 54.64413525 94.25634766 61.37329102 C95.15285399 67.40174623 96.05440791 73.42941623 96.96142578 79.45629883 C103.1489083 120.57785676 108.86525814 161.73311696 114 203 C116.14264119 199.78603821 117.42000424 196.5446166 118.765625 192.95703125 C119.32348605 191.49292747 119.88177357 190.02898614 120.44042969 188.56518555 C120.73445679 187.79185883 121.02848389 187.0185321 121.3314209 186.22177124 C131.50108424 159.54853496 143.17166927 133.64857857 155.1887207 107.76586914 C160.21422612 96.9323342 165.11920109 86.05211881 169.9375 75.125 C176.58686901 60.04684448 183.46791244 45.08289991 190.44311523 30.15283203 C190.82724579 29.32911102 191.21137634 28.50539001 191.60714722 27.65670776 C192.30917651 26.15191481 193.01275119 24.64784091 193.71853638 23.14480591 C197.29100636 15.48754389 200.60936266 7.7500282 204 0 C231.06 0 258.12 0 286 0 C283.74974394 6.75076818 283.74974394 6.75076818 282.23852539 9.84179688 C281.89886749 10.54098236 281.55920959 11.24016785 281.20925903 11.96054077 C280.84243011 12.70574982 280.4756012 13.45095886 280.09765625 14.21875 C279.51333328 15.41644516 279.51333328 15.41644516 278.91720581 16.63833618 C277.63619275 19.26081333 276.3495007 21.88045679 275.0625 24.5 C274.16399369 26.33570124 273.2656397 28.17147703 272.36743164 30.00732422 C265.8910523 43.22654557 259.32210994 56.39862848 252.71795654 69.55438232 C247.87095087 79.21094521 243.09848847 88.89134005 238.48999023 98.66455078 C233.49149764 109.19097722 228.22551917 119.58504935 223 130 C214.60960913 146.68126541 214.60960913 146.68126541 206.5 163.5 C200.32342016 176.62263259 193.74996871 189.55228818 187.22851562 202.50585938 C182.56943055 211.77363176 177.98449939 221.06888281 173.53125 230.4375 C167.55469436 243.00948067 161.31276107 255.44265187 155.05224609 267.875 C148.74179413 280.4149734 142.55602831 293.00409002 136.53295898 305.68481445 C126.68456794 326.40343253 116.56052061 347.11694448 102 365 C101.55720703 365.55880859 101.11441406 366.11761719 100.65820312 366.69335938 C82.87097916 389.06768636 60.62850548 399.67813715 32.44848633 403.37817383 C20.31258278 404.72599797 8.01104874 404.32348987 -4.18280029 404.20599365 C-7.7839208 404.17472264 -11.3851096 404.16148144 -14.98632812 404.14648438 C-21.99104559 404.11477601 -28.99549582 404.06391227 -36 404 C-35.41812061 396.26420318 -34.0777912 388.79912077 -32.49609375 381.2109375 C-32.2533522 380.02650055 -32.01061066 378.8420636 -31.76051331 377.62173462 C-30.99088155 373.87183693 -30.21430545 370.12341748 -29.4375 366.375 C-28.91164837 363.81910522 -28.3862531 361.26311651 -27.86132812 358.70703125 C-26.57949486 352.47025801 -25.29197062 346.23468068 -24 340 C-22.99324219 339.9906543 -21.98648437 339.98130859 -20.94921875 339.97167969 C-17.13174823 339.93111475 -13.3150289 339.86519203 -9.49804688 339.79248047 C-7.86142799 339.76464899 -6.22468413 339.7432513 -4.58789062 339.72900391 C11.87998522 339.57727286 28.70855657 338.19342968 41.05078125 325.96875 C54.30322608 310.30418994 54.29732343 289.40475701 53 270 C52.44568625 264.95238379 51.67289493 259.95509639 50.84765625 254.9453125 C50.62144109 253.54077452 50.39524525 252.13623343 50.16906738 250.73168945 C47.94957224 237.121264 45.24404723 223.61505476 42.43829727 210.11469269 C41.1514405 203.90587784 39.88615683 197.6925882 38.61542702 191.48045731 C38.06183959 188.77544889 37.50734738 186.07062691 36.95280457 183.36581421 C33.16371598 164.8692325 29.43392996 146.36075212 25.70703125 127.8515625 C25.54619726 127.05280543 25.38536326 126.25404837 25.21965551 125.43108654 C23.24510597 115.62426381 21.27167236 105.81721666 19.29854 96.01010871 C17.66132999 87.87298895 16.02294331 79.73610626 14.38443339 71.59924817 C13.14014337 65.41998347 11.89603619 59.24068195 10.65194106 53.061378 C10.35755236 51.59918344 10.06315843 50.13698994 9.76875901 48.67479753 C8.80503299 43.88821859 7.84155025 39.10159073 6.87817383 34.31494141 C6.64491898 33.15644684 6.41166412 31.99795227 6.17134094 30.80435181 C4.10542501 20.53797345 2.05376862 10.26884312 0 0 Z " fill="#FFFFFF" transform="translate(1948,2118)"/>
<path d="M0 0 C18.65333727 17.49451271 26.38965425 41.4007439 29.76171875 66.078125 C29.76171875 67.068125 29.76171875 68.058125 29.76171875 69.078125 C5.34171875 69.078125 -19.07828125 69.078125 -44.23828125 69.078125 C-45.88828125 64.128125 -47.53828125 59.178125 -49.23828125 54.078125 C-57.09897829 40.10355249 -65.72973966 32.25724105 -81.2109375 27.859375 C-96.44344831 23.92840447 -116.2585581 25.25048038 -130.23828125 33.078125 C-136.59180908 37.44821876 -140.12948626 41.75241678 -141.734375 49.4609375 C-142.59735591 55.2793861 -142.46406678 60.04101511 -139.23828125 65.078125 C-127.19590736 79.92371181 -102.05352052 84.33962548 -84.73852539 90.01782227 C-58.29306163 98.71467797 -30.39230079 108.25782292 -9.23828125 127.078125 C-8.39007812 127.78453125 -7.541875 128.4909375 -6.66796875 129.21875 C6.9256897 140.82408229 14.62631365 156.37927193 16.76171875 174.078125 C18.79694397 203.62112275 14.01703541 231.28042479 -5.70898438 254.28271484 C-15.44171657 265.1131481 -27.00432828 272.25971951 -40.23828125 278.078125 C-41.85669922 278.80128906 -41.85669922 278.80128906 -43.5078125 279.5390625 C-63.22278085 287.72263427 -84.68214728 289.48137603 -105.80078125 289.390625 C-106.68124115 289.38880219 -107.56170105 289.38697937 -108.46884155 289.38510132 C-149.75942445 289.24129698 -189.11187538 279.08878435 -219.13671875 249.1875 C-236.66107184 230.31511975 -241.62510372 205.90331152 -244.23828125 181.078125 C-218.82828125 181.078125 -193.41828125 181.078125 -167.23828125 181.078125 C-165.91828125 186.358125 -164.59828125 191.638125 -163.23828125 197.078125 C-156.75607031 210.90684167 -148.12467697 219.85222226 -133.67578125 225.390625 C-114.91089617 232.02588836 -91.8486228 231.49940025 -73.484375 223.9453125 C-67.05667084 220.74734437 -62.38046423 216.05285479 -59.36328125 209.515625 C-57.06559227 202.45745465 -56.74569104 193.42574099 -59.80078125 186.578125 C-70.01036843 170.07495668 -96.32205408 164.05318255 -113.48828125 158.29296875 C-171.40236277 138.84652296 -171.40236277 138.84652296 -193.23828125 119.078125 C-193.95242187 118.46839844 -194.6665625 117.85867187 -195.40234375 117.23046875 C-207.02054481 106.66642879 -212.57168793 91.38897761 -214.23828125 76.078125 C-214.87370191 62.56020319 -215.03268912 49.15965214 -211.23828125 36.078125 C-210.89796875 34.90378906 -210.55765625 33.72945312 -210.20703125 32.51953125 C-205.97373374 19.4620967 -198.89775359 8.75430923 -189.23828125 -0.921875 C-188.57570313 -1.59605469 -187.913125 -2.27023438 -187.23046875 -2.96484375 C-138.95784408 -48.94314215 -48.1035539 -41.30357508 0 0 Z " fill="#FFFFFF" transform="translate(3252.23828125,2141.921875)"/>
<path d="M0 0 C0.76119141 -0.01224609 1.52238281 -0.02449219 2.30664062 -0.03710938 C9.26198823 -0.0543683 15.96947667 1.00743784 22.8125 2.1875 C20.01076353 17.6114713 17.0974119 33.01250846 14.10449219 48.40042114 C13.74314202 50.25858709 13.38246497 52.11688406 13.02246094 53.97531128 C12.51190857 56.60896349 11.99858331 59.24205946 11.484375 61.875 C11.25340118 63.06863914 11.25340118 63.06863914 11.01776123 64.28639221 C10.4210454 67.32707845 9.79360648 70.24418056 8.8125 73.1875 C8.06790527 73.17702637 7.32331055 73.16655273 6.55615234 73.15576172 C-22.64999118 72.79898341 -48.27458011 74.89800485 -70.30859375 96.2421875 C-91.31031132 118.59489275 -97.18099232 149.35737926 -102.67943311 178.37507939 C-103.34092132 181.85382045 -104.01433838 185.33025439 -104.68626404 188.80699158 C-105.95635038 195.38827888 -107.21585411 201.97154377 -108.47146982 208.55560535 C-109.88291604 215.95363679 -111.30724893 223.34916849 -112.73225129 230.74459851 C-114.96989063 242.36076603 -117.20115542 253.97815924 -119.42016602 265.59790039 C-119.65209435 266.81113511 -119.88402269 268.02436983 -120.12297916 269.27436924 C-121.31331335 275.52213182 -122.48187322 281.77318486 -123.62106323 288.03048706 C-123.85049842 289.28739821 -124.07993361 290.54430937 -124.31632137 291.83930874 C-124.75263256 294.23723047 -125.18550019 296.63578201 -125.61447239 299.0350275 C-125.8070711 300.09386867 -125.99966982 301.15270983 -126.19810486 302.24363708 C-126.36576827 303.1776406 -126.53343168 304.11164412 -126.7061758 305.07395077 C-127.1875 307.1875 -127.1875 307.1875 -128.1875 308.1875 C-130.68242388 308.28252416 -133.14956014 308.31307566 -135.64477539 308.30102539 C-136.42520706 308.30117142 -137.20563873 308.30131744 -138.00971985 308.3014679 C-140.6015598 308.30076858 -143.19332878 308.29297536 -145.78515625 308.28515625 C-147.5773464 308.28329213 -149.36953706 308.2818682 -151.16172791 308.28086853 C-155.88820797 308.27704284 -160.61465752 308.26721212 -165.34112549 308.25616455 C-170.1603555 308.24595153 -174.97959042 308.24137115 -179.79882812 308.23632812 C-189.26173219 308.22558989 -198.72461356 308.20851286 -208.1875 308.1875 C-207.51662235 301.26821595 -206.38955879 294.53050664 -205.05566406 287.71044922 C-204.83817064 286.58314896 -204.62067722 285.45584869 -204.39659309 284.29438782 C-203.6687657 280.52633544 -202.93590277 276.75928004 -202.203125 272.9921875 C-201.67736009 270.27717341 -201.15272731 267.56194089 -200.62808228 264.84671021 C-199.49623187 258.9917855 -198.36195369 253.1373356 -197.22601318 247.28320312 C-195.42464509 237.99938146 -193.62800212 228.71464901 -191.83251953 219.4296875 C-191.68066515 218.64442515 -191.52881077 217.8591628 -191.37235475 217.05010462 C-190.75089285 213.83638831 -190.12944529 210.62266923 -189.50805724 207.40893865 C-188.5525247 202.46713449 -187.59661901 197.52540268 -186.64046109 192.58371949 C-181.73087079 167.20839132 -176.84666728 141.82824667 -171.9765625 116.4453125 C-171.63924913 114.68741687 -171.30193326 112.92952171 -170.96461487 111.17162704 C-167.85401097 94.96056897 -164.74505416 78.74919535 -161.63779938 62.53749502 C-160.41476741 56.15681974 -159.19095709 49.77629402 -157.96658599 43.39587557 C-157.12114251 38.98984243 -156.27668416 34.5836221 -155.43302393 30.17724717 C-154.80112683 26.8784109 -154.16778805 23.57985176 -153.53466797 20.28125 C-153.30945087 19.10330809 -153.08423378 17.92536617 -152.85219193 16.71172905 C-152.64588528 15.63832331 -152.43957863 14.56491756 -152.22702026 13.45898438 C-151.96022115 12.06697815 -151.96022115 12.06697815 -151.68803215 10.64685059 C-151.24719414 8.48080546 -150.7236129 6.33195158 -150.1875 4.1875 C-124.4475 4.1875 -98.7075 4.1875 -72.1875 4.1875 C-77.74305556 35.29861111 -77.74305556 35.29861111 -79.70703125 44.59765625 C-80.27870394 47.24010563 -80.27870394 47.24010563 -80.1875 50.1875 C-79.74921875 49.48367187 -79.3109375 48.77984375 -78.859375 48.0546875 C-64.64879874 25.93009113 -46.34555159 8.69440226 -20.43359375 1.84375 C-13.58858083 0.45992067 -6.96208875 0.00574904 0 0 Z " fill="#FFFFFF" transform="translate(3014.1875,2113.8125)"/>
</svg>
